<?xml version="1.0" encoding="UTF-8"?>
<svg xmlns="http://www.w3.org/2000/svg" xmlns:xlink="http://www.w3.org/1999/xlink" width="375pt" height="374.999991pt" viewBox="0 0 375 374.999991" version="1.2">
<g id="surface1">
<path style=" stroke:none;fill-rule:nonzero;fill:rgb(100%,100%,100%);fill-opacity:1;" d="M 124.898438 315.589844 C 91.554688 315.589844 60.152344 302.609375 36.589844 279 C 12.980469 255.4375 0 224.035156 0 190.691406 C 0 157.34375 12.980469 125.941406 36.589844 102.382812 C 60.152344 78.769531 91.554688 65.789062 124.898438 65.789062 C 158.246094 65.789062 189.644531 78.769531 213.207031 102.382812 C 236.820312 125.992188 249.800781 157.34375 249.800781 190.691406 C 249.800781 224.035156 236.820312 255.4375 213.207031 279 C 189.644531 302.609375 158.246094 315.589844 124.898438 315.589844 Z M 124.898438 73.277344 C 93.550781 73.277344 64.046875 85.507812 41.882812 107.671875 C 19.71875 129.835938 7.488281 159.339844 7.488281 190.691406 C 7.488281 222.039062 19.71875 251.542969 41.882812 273.707031 C 64.046875 295.871094 93.550781 308.101562 124.898438 308.101562 C 156.25 308.101562 185.753906 295.871094 207.917969 273.707031 C 230.082031 251.542969 242.3125 222.039062 242.3125 190.691406 C 242.3125 159.339844 230.082031 129.835938 207.917969 107.671875 C 185.753906 85.507812 156.25 73.277344 124.898438 73.277344 Z M 124.898438 73.277344 "/>
<path style=" stroke:none;fill-rule:nonzero;fill:rgb(100%,100%,100%);fill-opacity:1;" d="M 249.898438 315.589844 C 216.554688 315.589844 185.152344 302.609375 161.589844 279 C 137.980469 255.4375 125 224.035156 125 190.691406 C 125 157.34375 137.980469 125.941406 161.589844 102.382812 C 185.152344 78.769531 216.554688 65.789062 249.898438 65.789062 C 283.246094 65.789062 314.644531 78.769531 338.207031 102.382812 C 361.820312 125.992188 374.800781 157.34375 374.800781 190.691406 C 374.800781 224.035156 361.820312 255.4375 338.207031 279 C 314.644531 302.609375 283.246094 315.589844 249.898438 315.589844 Z M 249.898438 73.277344 C 218.550781 73.277344 189.046875 85.507812 166.882812 107.671875 C 144.71875 129.835938 132.488281 159.339844 132.488281 190.691406 C 132.488281 222.039062 144.71875 251.542969 166.882812 273.707031 C 189.046875 295.871094 218.550781 308.101562 249.898438 308.101562 C 281.25 308.101562 310.753906 295.871094 332.917969 273.707031 C 355.082031 251.542969 367.3125 222.039062 367.3125 190.691406 C 367.3125 159.339844 355.082031 129.835938 332.917969 107.671875 C 310.753906 85.507812 281.25 73.277344 249.898438 73.277344 Z M 249.898438 73.277344 "/>
<path style=" stroke:none;fill-rule:nonzero;fill:rgb(100%,100%,100%);fill-opacity:1;" d="M 189.375 249.800781 C 156.027344 249.800781 124.628906 236.820312 101.066406 213.207031 C 77.453125 189.644531 64.472656 158.246094 64.472656 124.898438 C 64.472656 91.554688 77.453125 60.152344 101.066406 36.589844 C 124.628906 12.980469 156.027344 0 189.375 0 C 222.71875 0 254.121094 12.980469 277.683594 36.589844 C 301.292969 60.203125 314.273438 91.554688 314.273438 124.898438 C 314.273438 158.246094 301.292969 189.644531 277.683594 213.207031 C 254.121094 236.820312 222.71875 249.800781 189.375 249.800781 Z M 189.375 7.488281 C 158.023438 7.488281 128.519531 19.71875 106.355469 41.882812 C 84.191406 64.046875 71.960938 93.550781 71.960938 124.898438 C 71.960938 156.25 84.191406 185.753906 106.355469 207.917969 C 128.519531 230.082031 158.023438 242.3125 189.375 242.3125 C 220.722656 242.3125 250.226562 230.082031 272.390625 207.917969 C 294.554688 185.753906 306.785156 156.25 306.785156 124.898438 C 306.785156 93.550781 294.554688 64.046875 272.390625 41.882812 C 250.226562 19.71875 220.722656 7.488281 189.375 7.488281 Z M 189.375 7.488281 "/>
<path style=" stroke:none;fill-rule:nonzero;fill:rgb(100%,100%,100%);fill-opacity:1;" d="M 189.375 374.800781 C 156.027344 374.800781 124.628906 361.820312 101.066406 338.207031 C 77.453125 314.644531 64.472656 283.246094 64.472656 249.898438 C 64.472656 216.554688 77.453125 185.152344 101.066406 161.589844 C 124.628906 137.980469 156.027344 125 189.375 125 C 222.71875 125 254.121094 137.980469 277.683594 161.589844 C 301.292969 185.203125 314.273438 216.554688 314.273438 249.898438 C 314.273438 283.246094 301.292969 314.644531 277.683594 338.207031 C 254.121094 361.820312 222.71875 374.800781 189.375 374.800781 Z M 189.375 132.488281 C 158.023438 132.488281 128.519531 144.71875 106.355469 166.882812 C 84.191406 189.046875 71.960938 218.550781 71.960938 249.898438 C 71.960938 281.25 84.191406 310.753906 106.355469 332.917969 C 128.519531 355.082031 158.023438 367.3125 189.375 367.3125 C 220.722656 367.3125 250.226562 355.082031 272.390625 332.917969 C 294.554688 310.753906 306.785156 281.25 306.785156 249.898438 C 306.785156 218.550781 294.554688 189.046875 272.390625 166.882812 C 250.226562 144.71875 220.722656 132.488281 189.375 132.488281 Z M 189.375 132.488281 "/>
</g>
</svg>
